<?xml version="1.0" encoding="UTF-8" standalone="no"?>
<svg
   xmlns:dc="http://purl.org/dc/elements/1.1/"
   xmlns:cc="http://creativecommons.org/ns#"
   xmlns:rdf="http://www.w3.org/1999/02/22-rdf-syntax-ns#"
   xmlns:svg="http://www.w3.org/2000/svg"
   xmlns="http://www.w3.org/2000/svg"
   xmlns:sodipodi="http://sodipodi.sourceforge.net/DTD/sodipodi-0.dtd"
   xmlns:inkscape="http://www.inkscape.org/namespaces/inkscape"
   inkscape:version="1.0beta1 (c2f0d51157, 2019-11-08)"
   inkscape:export-ydpi="288"
   inkscape:export-xdpi="288"
   inkscape:export-filename="/home/matt/projects/docs/static/logo.png"
   sodipodi:docname="noun_Book_48434.svg"
   id="svg146"
   xml:space="preserve"
   enable-background="new 0 0 100 100"
   viewBox="0 0 100 100"
   y="0px"
   x="0px"
   version="1.1"
   fill="#000000"
   width="100px"
   height="100px"><metadata
     id="metadata152"><rdf:RDF><cc:Work
         rdf:about=""><dc:format>image/svg+xml</dc:format><dc:type
           rdf:resource="http://purl.org/dc/dcmitype/StillImage" /></cc:Work></rdf:RDF></metadata><defs
     id="defs150" /><sodipodi:namedview
     inkscape:current-layer="svg146"
     inkscape:window-maximized="0"
     inkscape:window-y="24"
     inkscape:window-x="0"
     inkscape:cy="50"
     inkscape:cx="50"
     inkscape:zoom="8.49"
     showgrid="false"
     id="namedview148"
     inkscape:window-height="1031"
     inkscape:window-width="1920"
     inkscape:pageshadow="2"
     inkscape:pageopacity="0"
     guidetolerance="10"
     gridtolerance="10"
     objecttolerance="10"
     borderopacity="1"
     inkscape:document-rotation="0"
     bordercolor="#666666"
     pagecolor="#ffffff" /><ellipse
     style="stroke-width:1.26739"
     inkscape:export-ydpi="78.015083"
     inkscape:export-xdpi="78.015083"
     id="ellipse108"
     ry="3.5638864"
     rx="2.3763468"
     cy="47.730511"
     cx="41.978249"
     fill="#000000" /><ellipse
     style="stroke-width:1.26739"
     inkscape:export-ydpi="78.015083"
     inkscape:export-xdpi="78.015083"
     id="ellipse110"
     ry="3.5638864"
     rx="2.3763468"
     cy="47.730511"
     cx="65.741714"
     fill="#000000" /><path
     style="stroke-width:1.26739"
     inkscape:connector-curvature="0"
     inkscape:export-ydpi="78.015083"
     inkscape:export-xdpi="78.015083"
     id="path112"
     d="M 63.365368,59.613512 H 44.354594 c -0.657773,0 -1.188807,0.531034 -1.188807,1.188807 0,0.657773 0.531034,1.188808 1.188807,1.188808 h 19.010774 c 0.657773,0 1.188807,-0.531035 1.188807,-1.188808 0,-0.657773 -0.531034,-1.188807 -1.188807,-1.188807 z"
     fill="#000000" /><path
     style="stroke-width:1.26978"
     inkscape:connector-curvature="0"
     inkscape:export-ydpi="78.015083"
     inkscape:export-xdpi="78.015083"
     id="path114"
     d="M 80.127521,0 H 22.987642 C 17.080648,0 12.27328,4.8060985 12.27328,10.714362 v 78.567332 c 0,5.891757 4.780704,10.683891 10.66611,10.709291 0.01777,0 0.03047,0.009 0.04698,0.009 h 57.139878 c 0.01651,0 0.0292,-0.009 0.04698,-0.009 3.258242,-0.0254 5.904453,-2.680503 5.904453,-5.947634 v -19.046627 0 c 0,-0.0012 0,-0.0038 0,-0.0038 V 5.9514363 C 86.080281,2.6690675 83.411158,0 80.127521,0 Z m 3.570607,5.9514363 V 74.991646 c 0,1.969421 -1.602457,3.570607 -3.570607,3.570607 -0.0102,0 -0.01397,0.0038 -0.02413,0.0038 h -55.9247 V 2.3795583 h 55.94883 c 1.969421,0.00123 3.570607,1.602456 3.570607,3.571878 z m -69.04275,4.7616567 c 0,-4.1851799 3.114758,-7.6275395 7.142485,-8.2116356 V 78.687961 c -2.890008,0.325063 -5.41559,1.780224 -7.142485,3.942652 z m 65.472143,86.900866 c -0.0102,0 -0.01397,0.005 -0.02413,0.005 H 23.011769 c -0.0102,0 -0.01397,-0.005 -0.02413,-0.005 -4.594046,0 -8.332264,-3.738219 -8.332264,-8.332265 0,-4.594045 3.738218,-8.332264 8.332264,-8.332264 h 57.139879 c 0.01651,0 0.0292,-0.0088 0.04698,-0.0088 1.326915,-0.0102 2.538279,-0.469818 3.523625,-1.216445 v 14.319253 c 0,1.968151 -1.601186,3.570608 -3.570608,3.570608 z"
     fill="#000000" /><path
     style="stroke-width:1.26739"
     inkscape:connector-curvature="0"
     inkscape:export-ydpi="78.015083"
     inkscape:export-xdpi="78.015083"
     id="path116"
     d="m 78.810988,89.312143 c 0,-0.656506 -0.531035,-1.188807 -1.188808,-1.188807 h -4.752693 c -0.657773,0 -1.188807,0.531034 -1.188807,1.188807 0,0.657773 0.531034,1.188807 1.188807,1.188807 h 4.752693 c 0.65904,0 1.188808,-0.531034 1.188808,-1.188807 z"
     fill="#000000" /><path
     style="stroke-width:1.26739"
     inkscape:connector-curvature="0"
     inkscape:export-ydpi="78.015083"
     inkscape:export-xdpi="78.015083"
     id="path118"
     d="m 69.305601,89.312143 c 0,-0.656506 -0.531035,-1.188807 -1.188807,-1.188807 h -2.37508 c -0.657773,0 -1.188807,0.531034 -1.188807,1.188807 0,0.657773 0.531034,1.188807 1.188807,1.188807 h 2.376348 c 0.657773,0 1.187539,-0.531034 1.187539,-1.188807 z"
     fill="#000000" /><path
     style="stroke-width:1.26739"
     inkscape:connector-curvature="0"
     inkscape:export-ydpi="78.015083"
     inkscape:export-xdpi="78.015083"
     id="path120"
     d="m 62.177828,89.312143 c 0,-0.656506 -0.531034,-1.188807 -1.188807,-1.188807 h -4.752694 c -0.657773,0 -1.188807,0.531034 -1.188807,1.188807 0,0.657773 0.531034,1.188807 1.188807,1.188807 h 4.752694 c 0.657773,0 1.188807,-0.531034 1.188807,-1.188807 z"
     fill="#000000" /><path
     style="stroke-width:1.26739"
     inkscape:connector-curvature="0"
     inkscape:export-ydpi="78.015083"
     inkscape:export-xdpi="78.015083"
     id="path122"
     d="m 52.672441,89.312143 c 0,-0.656506 -0.531034,-1.188807 -1.188807,-1.188807 h -9.505387 c -0.657772,0 -1.188806,0.531034 -1.188806,1.188807 0,0.657773 0.531034,1.188807 1.188806,1.188807 h 9.505387 c 0.657773,0 1.188807,-0.531034 1.188807,-1.188807 z"
     fill="#000000" /><path
     style="stroke-width:1.26739"
     inkscape:connector-curvature="0"
     inkscape:export-ydpi="78.015083"
     inkscape:export-xdpi="78.015083"
     id="path124"
     d="m 38.414361,89.312143 c 0,-0.656506 -0.531035,-1.188807 -1.188806,-1.188807 H 18.214781 c -0.657773,0 -1.188808,0.531034 -1.188808,1.188807 0,0.657773 0.531035,1.188807 1.188808,1.188807 h 19.010774 c 0.657771,0 1.188806,-0.531034 1.188806,-1.188807 z"
     fill="#000000" /><path
     style="stroke-width:1.26739"
     inkscape:connector-curvature="0"
     inkscape:export-ydpi="78.015083"
     inkscape:export-xdpi="78.015083"
     id="path126"
     d="m 79.999795,83.371909 h -4.752694 c -0.657773,0 -1.188807,0.531034 -1.188807,1.188807 0,0.657773 0.531034,1.188808 1.188807,1.188808 h 4.752694 c 0.657773,0 1.188807,-0.531035 1.188807,-1.188808 0,-0.657773 -0.531034,-1.188807 -1.188807,-1.188807 z"
     fill="#000000" /><path
     style="stroke-width:1.26739"
     inkscape:connector-curvature="0"
     inkscape:export-ydpi="78.015083"
     inkscape:export-xdpi="78.015083"
     id="path128"
     d="m 68.118062,85.748256 h 2.376346 c 0.657773,0 1.188807,-0.531034 1.188807,-1.188807 0,-0.656506 -0.531034,-1.188807 -1.188807,-1.188807 h -2.376346 c -0.657773,0 -1.188808,0.531034 -1.188808,1.188807 0.0012,0.657773 0.531035,1.188807 1.188808,1.188807 z"
     fill="#000000" /><path
     style="stroke-width:1.26739"
     inkscape:connector-curvature="0"
     inkscape:export-ydpi="78.015083"
     inkscape:export-xdpi="78.015083"
     id="path130"
     d="m 58.612675,85.748256 h 4.752693 c 0.657773,0 1.188807,-0.531034 1.188807,-1.188807 0,-0.656506 -0.531034,-1.188807 -1.188807,-1.188807 h -4.752693 c -0.657773,0 -1.188808,0.531034 -1.188808,1.188807 0.0012,0.657773 0.531035,1.188807 1.188808,1.188807 z"
     fill="#000000" /><path
     style="stroke-width:1.26739"
     inkscape:connector-curvature="0"
     inkscape:export-ydpi="78.015083"
     inkscape:export-xdpi="78.015083"
     id="path132"
     d="m 44.354594,85.748256 h 9.505387 c 0.657773,0 1.188807,-0.531034 1.188807,-1.188807 0,-0.656506 -0.531034,-1.188807 -1.188807,-1.188807 h -9.505387 c -0.657773,0 -1.188807,0.531034 -1.188807,1.188807 0.0012,0.657773 0.531034,1.188807 1.188807,1.188807 z"
     fill="#000000" /><path
     style="stroke-width:1.26739"
     inkscape:connector-curvature="0"
     inkscape:export-ydpi="78.015083"
     inkscape:export-xdpi="78.015083"
     id="path134"
     d="m 20.591127,85.748256 h 19.010774 c 0.657773,0 1.188807,-0.531034 1.188807,-1.188807 0,-0.656506 -0.531034,-1.188807 -1.188807,-1.188807 H 20.591127 c -0.657773,0 -1.188807,0.531034 -1.188807,1.188807 0.0012,0.657773 0.531034,1.188807 1.188807,1.188807 z"
     fill="#000000" /><path
     style="stroke-width:1.26739"
     inkscape:connector-curvature="0"
     inkscape:export-ydpi="78.015083"
     inkscape:export-xdpi="78.015083"
     id="path136"
     d="m 79.999795,92.877296 h -4.752694 c -0.657773,0 -1.188807,0.531034 -1.188807,1.188807 0,0.657773 0.531034,1.188808 1.188807,1.188808 h 4.752694 c 0.657773,0 1.188807,-0.531035 1.188807,-1.188808 0,-0.657773 -0.531034,-1.188807 -1.188807,-1.188807 z"
     fill="#000000" /><path
     style="stroke-width:1.26739"
     inkscape:connector-curvature="0"
     inkscape:export-ydpi="78.015083"
     inkscape:export-xdpi="78.015083"
     id="path138"
     d="m 70.494408,92.877296 h -2.376346 c -0.657773,0 -1.188808,0.531034 -1.188808,1.188807 0,0.657773 0.531035,1.188808 1.188808,1.188808 h 2.376346 c 0.657773,0 1.188807,-0.531035 1.188807,-1.188808 0,-0.657773 -0.531034,-1.188807 -1.188807,-1.188807 z"
     fill="#000000" /><path
     style="stroke-width:1.26739"
     inkscape:connector-curvature="0"
     inkscape:export-ydpi="78.015083"
     inkscape:export-xdpi="78.015083"
     id="path140"
     d="m 63.365368,92.877296 h -4.752693 c -0.657773,0 -1.188808,0.531034 -1.188808,1.188807 0,0.657773 0.531035,1.188808 1.188808,1.188808 h 4.752693 c 0.657773,0 1.188807,-0.531035 1.188807,-1.188808 -0.0012,-0.657773 -0.531034,-1.188807 -1.188807,-1.188807 z"
     fill="#000000" /><path
     style="stroke-width:1.26739"
     inkscape:connector-curvature="0"
     inkscape:export-ydpi="78.015083"
     inkscape:export-xdpi="78.015083"
     id="path142"
     d="m 53.859981,92.877296 h -9.505387 c -0.657773,0 -1.188807,0.531034 -1.188807,1.188807 0,0.657773 0.531034,1.188808 1.188807,1.188808 h 9.505387 c 0.657773,0 1.188807,-0.531035 1.188807,-1.188808 -0.0012,-0.657773 -0.531034,-1.188807 -1.188807,-1.188807 z"
     fill="#000000" /><path
     style="stroke-width:1.26739"
     inkscape:connector-curvature="0"
     inkscape:export-ydpi="78.015083"
     inkscape:export-xdpi="78.015083"
     id="path144"
     d="M 39.601901,92.877296 H 20.591127 c -0.657773,0 -1.188807,0.531034 -1.188807,1.188807 0,0.657773 0.531034,1.188808 1.188807,1.188808 h 19.010774 c 0.657773,0 1.188807,-0.531035 1.188807,-1.188808 -0.0012,-0.657773 -0.531034,-1.188807 -1.188807,-1.188807 z"
     fill="#000000" /></svg>
